<svg xmlns="http://www.w3.org/2000/svg" xmlns:xlink="http://www.w3.org/1999/xlink" version="1.1" x="0px" y="0px" viewBox="0 0 64 80" enable-background="new 0 0 64 64" xml:space="preserve"><g><g><path d="M24.184,23.37c3.305-4.18-2.544-6.041-3.12-0.96C21.707,23.604,22.901,23.185,24.184,23.37z"/><path d="M33.064,22.89c-1.425-0.875-2.159,0.215-3.6,0c-0.622,0.635-0.978,2.073-0.48,3.12    C31.287,27.54,33.124,25.238,33.064,22.89z"/><path d="M17.464,33.45c0.599,4.119,5.464-0.85,5.76-2.88c-0.125-0.355-0.355-0.605-0.48-0.96    C20.144,29.494,17.151,31.294,17.464,33.45z"/><path d="M29.944,31.77c-2.184,0.066-1.317,4.419,2.4,4.56c0.158-0.722,0.922-0.838,0.72-1.92    C31.561,33.148,30.96,31.739,29.944,31.77z"/><path d="M39.544,38.25c-3.249,3.366,3.108,5.868,3.601,0.48C42.361,37.329,40.688,38.762,39.544,38.25z"/><path d="M26.584,42.57c-3.917-0.348-4.436,3.533-1.2,3.84c1.132,0.107,1.811-0.862,3.36-0.72    C29.408,43.212,26.394,43.867,26.584,42.57z"/><path d="M43.624,22.41c-0.187-0.438-0.258,0.144-0.24,0.48C43.978,23.586,43.808,23.176,43.624,22.41z"/><path d="M54.664,28.89c-1.901,0.108-5.491,0.5-5.52-2.16c-1.306,0.025-2.49-0.07-3.36-0.48c-0.471-0.948-2.259-1.02-2.4-3.36    c-0.766-0.203-0.247-1.438-0.239-2.16c-1.427-0.865-1.803-0.41-3.12-0.24c0.929-0.138-0.939-1.59-1.44-0.96    c-0.648-2.147-0.119-5.204-2.88-6.48c0.03-1.264,0.609-3.188-0.72-3.84c0.066-0.567,0.641,0.275,0.96,0.24    c0.135-1.536-1.821-1.002-2.4-1.2c0-0.08,0-0.16,0-0.24c-0.88,0-1.76,0-2.64,0c-3.189,0.277-6.715,1.622-8.64,2.64    c-1.229,0.65-2.466,0.813-3.6,1.68c-2.905,2.223-7.145,6.683-8.88,11.04c-1.067,2.68-0.723,5.273-1.44,7.68c0,0.96,0,1.92,0,2.88    c0.594,5.582,3.383,10.728,7.2,14.88c1.599,0.642,2.91,1.569,3.84,2.88c5.75,3.193,14.616,4.623,21.36,1.92    C49.315,50.176,56.089,41.066,54.664,28.89z M38.344,51.69c-0.314-0.085-0.377-0.423-0.72-0.48    c-0.698,1.437-2.646,0.183-3.359,1.44c-0.866-0.213-0.169-0.73,0.479-0.72c-0.827-0.07-1.358,0.202-2.64-0.24    c-0.149,0.246-0.146,0.826-1.2,0.72c0.18-0.453,0.716-0.166,0.24-0.72c-0.792,0.999-1.636-0.695-2.16,0.72    c-1.718-2.07-5.729-1.343-6.72-3.36c-0.769,0.594-1.417-0.536-2.64-0.239c-0.132-0.532,0.458-0.342,0.48-0.721    c-2.896-2.063-5.451-5.748-6.96-8.399c0.058-1.812-1.181-3.444-1.44-5.28c-0.713-5.058,1.549-9.723,2.88-13.68    c0.315-0.288,0.377-0.094,0.72,0c0.959-2.641,3.673-3.527,5.04-5.76c3.298-1.386,6.022-2.755,9.36-3.6    c1.087,0.091,1.789,0.315,2.64-0.24c0.331,2.324,0.47,4.18,2.4,5.28c0.286,3.714,2.125,5.875,5.28,6.72    c1.776,2.624,2.616,6.184,7.2,6c1.379,1.261,2.773,2.506,5.76,2.16C52.933,42.973,46.341,48.662,38.344,51.69z"/></g></g></svg>